<svg xmlns="http://www.w3.org/2000/svg" viewBox="0 0 50 50">
    <path d="M 25 3 C 16.734 3 13.635281 11.774703 13.113281 13.470703 C 12.724281 13.883703 12 14.81 12 16 L 12 16.607422 C 10.222 17.519422 9 19.368 9 21.5 C 9 22.935 9.5680625 24.281922 10.539062 25.294922 C 10.201063 25.780922 10 26.367 10 27 C 10 27.724823 10.271108 28.382313 10.703125 28.902344 C 10.576224 29.031474 10.407912 29.216966 10.222656 29.466797 C 9.8723479 29.939214 9.441638 30.650583 9.0644531 31.644531 C 9.0772071 31.610921 8.9471594 31.853516 8.7558594 32.126953 C 8.5645593 32.400391 8.3142733 32.744029 8.0625 33.130859 C 7.5589534 33.904519 7 34.848962 7 36 A 1.0001 1.0001 0 0 0 7.0976562 36.431641 C 7.0976562 36.431641 7.6100971 37.444185 8.8339844 38.314453 C 9.3938653 38.712567 10.121373 39.096124 11.019531 39.398438 C 11.190815 40.597027 11.779449 41.976095 13.267578 42.757812 C 13.625578 43.442813 14.299 44.573734 16 45.302734 L 16 46 C 16 46.552 16.447 47 17 47 L 36 47 C 36.312 47 36.604922 46.854422 36.794922 46.607422 C 36.984922 46.360422 37.047797 46.039281 36.966797 45.738281 C 36.201394 42.906376 36.010497 37.364614 35.96875 35.818359 C 36.705541 35.614921 37.339349 35.258852 37.814453 34.824219 C 38.535592 34.164509 39 33.430095 39 32.53125 C 39 31.624152 38.86038 30.767278 38.326172 30.066406 C 37.791963 29.365534 36.876522 29 35.896484 29 C 35.100618 29 34.464885 29.226507 34 29.511719 L 34 27.943359 L 34.853516 26.521484 A 1.0001 1.0001 0 0 0 34.857422 26.513672 L 36 24.609375 L 36 27 A 1.0001 1.0001 0 0 0 37.857422 27.513672 L 39 25.609375 L 39 28 A 1.0001 1.0001 0 1 0 41 28 L 41 22 A 1.0001 1.0001 0 0 0 39.142578 21.486328 L 38 23.390625 L 38 21 A 1.0001 1.0001 0 0 0 36.970703 20 A 1.0001 1.0001 0 0 0 36.142578 20.486328 L 33.75 24.472656 L 33.142578 25.484375 L 33.142578 25.486328 C 32.954439 25.798476 32.621718 25.970703 32.283203 25.970703 C 32.108203 25.970703 31.930531 25.923172 31.769531 25.826172 C 31.295531 25.542172 31.143734 24.929078 31.427734 24.455078 L 34.427734 19.455078 C 34.966734 18.557078 35.951047 17.998047 36.998047 17.998047 C 37.272047 17.998047 37.544828 18.036422 37.798828 18.107422 C 38.401828 18.274422 38.920734 18.623031 39.302734 19.082031 C 39.455734 19.045031 39.616391 19.037391 39.775391 19.025391 C 39.994391 17.547391 40 16.224 40 15 C 40 5.575 30.191 3.029 25 3 z M 14.5 18 C 15.796 18 16.973125 18.717031 17.578125 19.832031 C 17.209125 20.647031 17 21.549 17 22.5 C 17 23.017 17.066641 23.518 17.181641 24 L 17 24 L 13.5 24 L 13 24 C 12.732 24 12.476516 24.046281 12.228516 24.113281 C 11.468516 23.453281 11 22.521 11 21.5 C 11 19.57 12.57 18 14.5 18 z M 23.5 18 C 25.981 18 28 20.019 28 22.5 C 28 24.981 25.981 27 23.5 27 C 21.019 27 19 24.981 19 22.5 C 19 20.019 21.019 18 23.5 18 z M 14 21 A 1 1 0 0 0 13 22 A 1 1 0 0 0 14 23 A 1 1 0 0 0 15 22 A 1 1 0 0 0 14 21 z M 25 22 A 1 1 0 0 0 24 23 A 1 1 0 0 0 25 24 A 1 1 0 0 0 26 23 A 1 1 0 0 0 25 22 z M 12.431641 29.943359 C 12.615837 29.979058 12.805777 30 13 30 L 13.5 30 L 14.685547 30 C 14.734547 30 19.552422 30.641969 22.482422 32.417969 C 26.404422 34.794969 26.027766 38.724234 26.009766 38.865234 L 26 39 C 26 39.204 25.932 44 20 44 C 16.152 44 15.387563 42.508031 14.976562 41.707031 L 14.714844 41.216797 L 14.392578 41.080078 C 13.756924 40.810229 13.399714 40.355164 13.199219 39.884766 C 13.756548 39.955135 14.350844 40 15 40 C 17.84093 40 19.665698 39.745401 20.816406 39.472656 C 21.391761 39.336284 21.798851 39.196211 22.078125 39.078125 C 22.357399 38.960039 22.570312 38.820312 22.570312 38.820312 A 1.0001 1.0001 0 1 0 21.429688 37.179688 C 21.429688 37.179688 21.462988 37.164955 21.298828 37.234375 C 21.134664 37.303785 20.834864 37.413716 20.355469 37.527344 C 19.396677 37.754596 17.72107 38 15 38 C 12.398791 38 10.879753 37.315279 9.9941406 36.685547 C 9.2666981 36.168285 9.1705984 35.901576 9.0976562 35.767578 C 9.1650842 35.34839 9.3646479 34.796715 9.7382812 34.222656 C 9.9532579 33.892361 10.185894 33.571655 10.394531 33.273438 C 10.603169 32.975218 10.789793 32.739581 10.935547 32.355469 C 11.246362 31.536417 11.584387 30.989536 11.830078 30.658203 C 12.07577 30.32687 12.173828 30.255859 12.173828 30.255859 A 1.0001 1.0001 0 0 0 12.431641 29.943359 z M 35.896484 31 C 36.468447 31 36.605084 31.109669 36.734375 31.279297 C 36.863666 31.448925 37 31.856348 37 32.53125 C 37 32.487405 36.858955 32.98907 36.464844 33.349609 C 36.070732 33.710149 35.506372 34 34.748047 34 A 1.0001 1.0001 0 0 0 34.714844 34.001953 C 34.710958 34.00197 34.707006 33.999927 34.703125 34 C 34.193876 34.021797 33.466627 33.325396 34.628906 31.681641 A 1.0001779 1.0001779 0 0 0 34.810547 31.408203 C 34.810547 31.408203 34.801647 31.392413 34.947266 31.273438 C 35.092898 31.154457 35.335261 31 35.896484 31 z"/>
</svg>
